PathFileType	4	(X/Y/Z)	Trial.trc
DataRate	CameraRate	NumFrames	NumMarkers	Units	OrigDataRate	OrigDataStartFrame	OrigNumFrames
9	9	10	2	mm	9	1	10
Frame#	Time	Marker1			Marker2		
		X1	Y1	Z1	X2	Y2	Z2
1	0	0.395313186488379	0.652124386108623	1.49858946250425	1.27270471648384	-0.271536426812684	-3.25529656141402
2	0.111111111111111	0.154440049064253	-0.888197816438099	-0.676475585969893	-0.855310332253131	1.12109106498912	0.44886745615925
3	0.222222222222222	0.210983084073106	-0.408181347756868	0.961419327736576	2.14069277597793	0.827713684216771	-0.393553688911138
4	0.333333333333333	-0.0829635760649792	-0.822338038049706	-1.54111230180929	0.963902178368427	-1.05067675693702	-1.54729761465803
5	0.444444444444444	0.0737196034307815	-0.74613063517901	0.477290457962331	0.485921280158801	1.11864568308421	-0.668501926961276
6	0.555555555555556	0.693619976444438	-0.0277789904202707	-0.308370388998605	-2.06042767051515	0.109857783744143	0.950230363388879
7	0.666666666666667	0.780704325976658	-1.8300844648789	0.697968907224842	0.188556232382283	0.190266601694526	1.23856415169934
8	0.777777777777778	-0.864723795598158	0.5573151432282	-0.35765462503226	-0.921079756398164	-0.109765023596322	-1.59346476141829
9	0.888888888888889	0.346466251555579	0.117186376753946	-1.38586984367044	1.61549879588458	-0.31895568693517	1.02114674159095
10	1	-1.85145207602916	-1.47710048621723	-0.767846399448234	0.068599402800952	0.683249595278449	0.266261814863667
